<svg xmlns="http://www.w3.org/2000/svg" style="display: none;"><symbol id="trash-container-side" viewBox="0 0 466 466"><title>trash-container-side</title><path style="fill:#090509;" d="M377,126c-12,0-22,10-22,22v275H110V148c0-12-9-22-21-22s-22,10-22,22v297c0,12,10,21,22,21h288 c12,0,22-9,22-21V148C399,136,389,126,377,126z"/><path style="fill:#090509;" d="M431,56H301V13c0-8-5-13-13-13H178c-8,0-13,5-13,13v43H35c-12,0-22,10-22,22s10,21,22,21h396 c12,0,22-9,22-21S443,56,431,56z M274,56h-82V27h82V56z"/><path style="fill:#090509;" d="M181,377V163c0-8-6-14-14-14s-13,6-13,14v214c0,8,5,14,13,14S181,385,181,377z"/><path style="fill:#090509;" d="M247,378V163c0-8-6-13-14-13s-14,5-14,13v215c0,8,6,13,14,13S247,386,247,378z"/><path style="fill:#090509;" d="M311,378V164c0-8-5-14-13-14s-14,6-14,14v214c0,8,6,14,14,14S311,386,311,378z"/></symbol><symbol id="new-page-document" viewBox="0 0 475 475"><title>new-page-document</title><path style="fill:#010002;" d="M415.5,127L295.5,7c-4-4-9-7-15-7h-206c-12,0-22,10-22,22v432c0,12,10,21,22,21h326c12,0,22-9,22-21 V142C422.5,136,419.5,131,415.5,127z M378.5,432h-282V44h129v129c0,12,10,22,22,22h131V432z M269.5,151V44h2l107,107H269.5z"/></symbol><symbol id="stop" viewBox="0 0 422 422"><title>stop</title><path style="fill:#090509;" d="M397,0H25C11,0,0,11,0,25v372c0,14,11,25,25,25h372c14,0,25-11,25-25V25C422,11,411,0,397,0z M373,373H49V49h324V373z"/></symbol><symbol id="music" viewBox="0 0 438 438"><title>music</title><path style="fill:#090509;" d="M121,0c18,0,33,15,33,33v372c0,18-15,33-33,33s-32-15-32-33V33C89,15,103,0,121,0z"/><path style="fill:#090509;" d="M317,0c18,0,32,15,32,33v372c0,18-14,33-32,33s-33-15-33-33V33C284,15,299,0,317,0z"/></symbol><symbol id="play" viewBox="0 0 415.686 415.686"><title>play</title><path style="fill:#010002;" d="M338.843,190.686l-235-186c-16-12-36,1-36,17v372c0,11,9,22,22,22c5,0,10-2,14-5l235-186 c5-4,9-10,9-17S343.843,194.686,338.843,190.686z M111.843,348.686v-282l179,141L111.843,348.686z"/></symbol><symbol id="plus-sign" viewBox="0 0 379 379"><title>plus-sign</title><path style="fill:#010002;" d="M347,157c18,0,32,15,32,33s-14,33-32,33H223v124c0,18-15,32-33,32s-33-14-33-32V223H33 c-18,0-33-15-33-33s15-33,33-33h124V33c0-18,15-33,33-33s33,15,33,33v124H347z"/></symbol><symbol id="award-star" viewBox="0 0 493.871 493.871"><title>award-star</title><path style="fill:#010002;" d="M474.298,174.792l-143-11l-64-141c-4-8-11-12-20-12s-16,4-20,12l-64,141l-143,11c-18,1-28,25-13,38 l120,101l-40,141c-2,9,1,19,8,24s16,6,24,1l128-83l127,83c4,2,8,3,12,3c15,0,25-15,21-28l-40-141l119-101 C501.298,199.792,492.298,175.792,474.298,174.792z M328.298,289.792c-7,6-8,14-6,22l28,100l-91-59c-4-2-8-4-12-4s-8,2-12,4 l-91,59l28-100c2-8,0-16-7-22l-89-76l103-7c8-1,15-6,18-13l50-109l50,109c3,7,10,12,18,13l103,7L328.298,289.792z"/></symbol><symbol id="user-group" viewBox="0 0 510 510"><title>user-group</title><path style="fill:#090509;" d="M198,305c65,0,117-52,117-117S263,71,198,71S81,123,81,188S133,305,198,305z M198,111 c42,0,76,35,76,77s-34,76-76,76s-77-34-77-76S156,111,198,111z"/><path style="fill:#090509;" d="M251,309c-7-2-14,0-19,4l-34,29l-35-29c-5-4-12-6-19-4C110,320,0,360,0,419c0,11,9,20,20,20h355 c11,0,20-9,20-20C395,360,285,320,251,309z M55,399c19-16,55-36,91-48l39,33c8,6,18,6,26,0l39-33c36,12,72,32,91,48H55z"/><path style="fill:#090509;" d="M441,308c-8-4-16-1-20,7s-1,16,7,20c12,6,34,21,45,35h-54c-8,0-15,7-15,15s7,16,15,16h76 c8,0,15-8,15-16C510,343,448,311,441,308z"/><path style="fill:#090509;" d="M366,282c-12,0-24-5-33-14c-6-6-15-6-21,0s-6,16,0,22c15,15,33,22,54,22c42,0,77-35,77-77 s-35-76-77-76c-16,0-46,5-38,25c3,8,12,12,20,9c6-2,12-4,18-4c26,0,47,20,47,46S392,282,366,282z"/></symbol><symbol id="user" viewBox="0 0 494 494"><title>user</title><path style="fill:#090509;" d="M247,307c80,0,145-65,145-145S327,17,247,17S102,82,102,162S167,307,247,307z M247,60 c56,0,101,46,101,102s-45,101-101,101s-101-45-101-101S191,60,247,60z"/><path style="fill:#090509;" d="M314,320c-7-2-15-1-21,4l-46,39l-46-39c-6-5-14-6-21-4C150,330,0,381,0,455c0,12,9,22,21,22h451 c12,0,22-10,22-22C494,381,344,330,314,320z M55,433c24-25,80-52,127-68l51,43c8,7,20,7,28,0l51-43c47,16,103,43,127,68H55z"/></symbol><symbol id="right-arrow" viewBox="0 0 315.5 315.5"><title>right-arrow</title><path style="fill:#010002;" d="M242,141L109,8c-5-5-12-8-18-8S79,3,74,8c-10,10-10,24,0,34l116,116L74,274c-10,10-10,24,0,34 s25,10,35,0l133-133c5-5,7-11,7-17C249,151,247,146,242,141z"/></symbol><symbol id="directional-arrow" viewBox="0 0 315.5 315.5"><title>directional-arrow</title><path style="fill:#010002;" d="M308,206.5l-133-133c-5-5-11-7-17-7c-7,0-12,2-17,7L8,206.5c-5,5-8,11-8,17s3,13,8,18 c10,10,24,10,34,0l116-116l116,116c10,10,24,10,34,0S318,216.5,308,206.5z"/></symbol><symbol id="arrow-pointing-left" viewBox="0 0 314.5 314.5"><title>arrow-pointing-left</title><path style="fill:#090509;" d="M125,157.5l116-116c10-10,10-24,0-34s-25-10-35,0l-133,133c-5,5-7,10-7,17s2,12,7,17l133,133 c5,5,11,7,17,7s13-2,18-7c10-10,10-24,0-34L125,157.5z"/></symbol><symbol id="checking" viewBox="0 0 497.5 497.5"><title>checking</title><path style="fill:#010002;" d="M487.75,78.125c-13-13-33-13-46,0l-272,272l-114-113c-13-13-33-13-46,0s-13,33,0,46l137,136 c6,6,15,10,23,10s17-4,23-10l295-294C500.75,112.125,500.75,91.125,487.75,78.125z"/></symbol><symbol id="down-arrow" viewBox="0 0 314.5 314.5"><title>down-arrow</title><path style="fill:#010002;" d="M314.5,90.5c0,6-2,13-7,18l-133,133c-5,5-10,7-17,7s-12-2-17-7l-133-133c-10-10-10-25,0-35 s24-10,34,0l116,116l116-116c10-10,24-10,34,0C312.5,78.5,314.5,84.5,314.5,90.5z"/></symbol><symbol id="letter-x" viewBox="0 0 339.75 339.75"><title>letter-x</title><path style="fill:#090509;" d="M215.875,169.75l114,114c13,13,13,33,0,46c-6,6-15,10-23,10s-17-4-23-10l-114-114l-114,114 c-6,6-15,10-23,10s-17-4-23-10c-13-13-13-33,0-46l114-114l-114-114c-13-13-13-33,0-46s33-13,46,0l114,114l114-114 c13-13,33-13,46,0s13,33,0,46L215.875,169.75z"/></symbol><symbol id="gear-loading" viewBox="0 0 516 516"><title>gear-loading</title><path style="fill:#010002;" d="M510,203c-2-8-8-13-16-14l-42-6c-2-6-1-3-4-9l26-34c5-6,5-15,1-22c0-1-11-18-35-42s-41-35-42-35 c-7-4-16-4-22,1l-34,26c-6-3-3-2-9-4l-6-42c-1-8-6-14-14-16c-1,0-21-6-55-6s-54,6-55,6c-8,2-13,8-14,16l-6,42c-6,2-3,1-9,4 l-34-26c-6-5-15-5-22-1c-1,0-18,11-42,35s-35,41-35,42c-4,7-4,16,1,22l26,34c-3,6-2,4-4,10l-42,5c-8,1-14,6-16,14c0,1-6,21-6,55 s6,54,6,55c2,8,8,13,16,14l42,6c2,6,1,3,4,9l-26,34c-5,6-5,15-1,22c0,1,11,18,35,42s41,35,42,35c7,4,16,4,22-1l34-26 c6,3,4,2,10,4l5,42c1,8,6,14,14,16c1,0,21,6,55,6s54-6,55-6c8-2,13-8,14-16l6-42c6-2,3-1,9-4l34,26c6,5,15,5,22,1 c1,0,18-11,42-35s35-41,35-42c4-7,4-16-1-22l-26-34c3-6,2-3,4-9l42-6c8-1,14-6,16-14c0-1,6-21,6-55S510,204,510,203z M475,291 l-40,5c-7,1-14,6-16,13c-6,17-4,12-11,27c-3,7-2,15,2,21l25,31c-5,6-12,15-22,25s-18,17-24,22l-32-25c-6-4-14-5-21-2 c-17,8-9,5-27,11c-7,2-12,9-13,16l-5,40c-8,1-19,2-33,2s-25-1-33-2l-5-40c-1-7-6-14-13-16c-17-6-12-4-27-11c-7-3-14-2-20,2 l-32,25c-6-5-15-12-25-22s-16-18-21-24l24-32c4-6,5-14,2-21c-8-15-5-10-11-27c-2-7-9-12-16-13l-40-5c-1-8-2-19-2-33s1-25,2-33 l40-5c7-1,14-6,16-13s5-13,5-14c0,0,3-7,6-13c3-7,2-14-2-20l-24-32c5-6,11-15,21-25s19-16,25-21l32,24c6,4,13,5,20,2 c15-8,10-5,27-11c7-2,12-9,13-16l5-40c8-1,19-2,33-2s25,1,33,2l5,40c1,7,6,14,13,16c17,6,12,4,27,11c7,3,15,2,21-2l32-24 c6,5,14,11,24,21s17,19,22,25l-25,32c-4,6-5,13-2,20c8,17,6,9,12,27c2,7,8,12,15,13l40,5c1,8,2,19,2,33S476,283,475,291z"/><path style="fill:#010002;" d="M258,135c-68,0-123,55-123,123s55,123,123,123s123-55,123-123S326,135,258,135z M258,342 c-47,0-84-37-84-84s37-84,84-84s84,37,84,84S305,342,258,342z"/></symbol></svg>